<svg width="77" height="20" viewBox="0 0 77 20" fill="none" xmlns="http://www.w3.org/2000/svg">
<rect width="77" height="20" fill="#E5E5E5"/>
<path id="Vector 1" d="M0.75 13.75C0.894026 14.2301 1.13323 14.7929 1.56944 15.0903C1.87243 15.2969 2.32244 15.3496 2.67708 15.3681C3.34687 15.4029 4.18466 15.4854 4.82639 15.2604C6.0164 14.8431 6.70292 13.355 6.98611 12.2222C7.10971 11.7278 7.13201 11.2157 7.22222 10.7153C7.33444 10.0928 7.51606 9.49072 7.67014 8.87847C7.86408 8.10782 8.0081 7.32121 8.18056 6.54514C8.50693 5.07645 8.82384 3.59792 9.29861 2.17361C9.42417 1.79692 9.375 2.18194 9.375 2.375C9.375 2.86048 9.31661 3.3957 9.40278 3.875C9.48788 4.3484 9.60973 4.80037 9.69097 5.27431C9.77002 5.73543 9.81545 6.19466 9.90278 6.65625C10.1058 7.72914 10.041 8.87446 10.1215 9.96181C10.2712 11.9825 9.74635 14.098 10.5972 16C11.0493 17.0106 12.201 17.1771 13.0625 16.5972C13.5912 16.2414 14.1812 15.4286 14.4097 14.8333C14.6936 14.0939 14.8476 13.296 15.0625 12.5347C15.288 11.7358 15.5352 10.9212 15.6493 10.0972C15.751 9.36252 15.6983 8.62689 15.809 7.88889C15.9193 7.15393 15.7614 4.93547 15.6285 5.66667C15.5582 6.05304 15.6373 6.56013 15.7153 6.9375C15.813 7.41053 15.9364 7.98962 16.125 8.4375C16.2493 8.73274 16.2342 9.11985 16.3125 9.4375C16.388 9.7441 16.375 10.0479 16.375 10.3611C16.375 10.8694 16.3298 11.3602 16.3125 11.8611C16.3092 11.9579 16.1875 12.5224 16.1875 12.3194C16.1875 11.5647 16.2561 10.7802 16.125 10.0347C15.9721 9.1651 15.9375 8.29195 15.9375 7.40972C15.9375 6.7919 15.7975 5.92479 15.3681 5.43403C14.7971 4.78149 13.5843 4.83214 12.8403 4.52778C12.6638 4.45558 12.7759 4.56601 12.8611 4.625C13.356 4.96762 14.0858 5.0522 14.6667 5.09722C16.3063 5.22433 17.9874 5.125 19.6319 5.125C20.8449 5.125 22.0579 5.125 23.2708 5.125C23.4292 5.125 22.9592 5.22828 22.8472 5.34028C22.0413 6.14624 21.6815 7.19563 21.3125 8.25C21.1338 8.76049 21.0099 9.29574 20.8438 9.8125C20.7025 10.2519 20.5374 10.65 20.5035 11.125C20.474 11.5383 20.375 11.9233 20.375 12.3403C20.375 12.8419 20.5169 13.5263 20.816 13.9375C21.1788 14.4364 21.8711 14.4603 22.4236 14.5764C23.2568 14.7514 23.9952 14.6676 24.8125 14.4583C25.2612 14.3435 25.6201 14.0172 25.9861 13.75C26.2997 13.521 26.6341 13.3034 26.9097 13.0278C27.2907 12.6468 27.4375 12.0874 27.4375 11.5625C27.4375 11.1338 27.3139 10.625 26.7986 10.625C26.258 10.625 25.9945 10.7394 25.5486 11.0347C24.8215 11.5163 24.25 11.7738 24.25 12.75C24.25 13.1161 24.5463 13.4463 24.8194 13.6597C25.3015 14.0364 25.9445 14.4709 26.5347 14.6493C27.9741 15.0845 29.4078 14.2952 29.5868 12.7639C29.6911 11.8715 29.5656 11.0256 29.0694 10.2813C28.8977 10.0236 28.7537 9.69485 28.8194 10.2535C28.8832 10.795 29.3554 11.2677 29.5278 11.7847C29.685 12.2563 29.7482 12.7618 29.9028 13.2396C29.9395 13.3532 29.961 13.75 30.125 13.75C30.5769 13.75 30.9057 13.3672 31.1875 13.0625C31.6784 12.5318 32.0625 11.4876 32.0625 10.7639C32.0625 10.3646 32.0805 9.98406 31.9722 9.59722C31.9487 9.51322 31.9375 9.31048 31.9375 9.52431C31.9375 9.85185 31.9375 10.1794 31.9375 10.5069C31.9375 10.8529 32.018 11.1551 32.0556 11.4931C32.0744 11.6628 32.0229 11.8685 32.0972 12.0278C32.1737 12.1917 32.2693 12.4149 32.309 12.5938C32.3772 12.9006 33.2837 13.0111 33.5625 13.0486C34.3902 13.16 35.0588 12.4169 35.1875 11.6806C35.2581 11.2768 35.3576 10.8332 35.375 10.4236C35.3891 10.0928 35.436 9.55054 35.5625 9.25C35.6017 9.15698 35.6538 8.59829 35.6111 8.93056C35.5471 9.42822 35.5 9.89513 35.5 10.3958C35.5 10.8243 35.3601 11.4938 35.6007 11.8681C35.712 12.0411 36.0103 12.0981 36.1528 12.2813C36.282 12.4473 36.4083 12.5805 36.559 12.75C36.898 13.1313 36.4713 12.9094 36.3542 12.625C36.2233 12.3072 36.0623 12.0448 35.8889 11.75C35.7506 11.5148 35.8125 11.1669 35.8125 10.8889C35.8125 10.0191 35.75 9.12919 35.75 8.25C35.75 8.01273 35.75 7.77546 35.75 7.5382C35.75 7.0989 35.1604 7.00894 34.8333 6.94445C33.0467 6.59214 31.1568 7.17924 29.4062 7.46528C28.3251 7.64193 27.2231 7.63822 26.1458 7.81945C25.7322 7.88902 25.3343 8.03854 24.9236 8.125C24.8973 8.13054 24.7334 8.21306 24.8333 8.23611C25.1922 8.31893 25.6336 8.25 26 8.25C26.7327 8.25 27.4327 8.07473 28.1389 7.88889C28.9382 7.67855 29.722 7.46393 30.5486 7.29861C31.1061 7.1871 31.6125 6.9375 32.191 6.9375C33.0955 6.9375 33.9165 6.97031 34.809 7.15625C35.0176 7.1997 35.3105 7.21616 35.3889 7.45139C35.5092 7.81238 35.5948 8.16529 35.8125 8.48611C35.9554 8.69674 35.9944 8.93664 36 9.20139C36.0081 9.58074 36.125 9.9379 36.125 10.3125C36.125 10.7426 36.1261 11.0428 36.3125 11.4375C36.4263 11.6786 36.4401 11.9919 36.5139 12.25C36.5376 12.3329 36.6218 12.3678 36.625 12.4514C36.6287 12.5466 36.593 12.698 36.6389 12.7847C36.6986 12.8975 37.1022 12.1284 37.1319 12.059C37.3576 11.5324 37.6723 11.105 37.8368 10.5382C38.0356 9.85339 38.0625 9.11485 38.0625 8.40625C38.0625 7.56292 38.6964 8.32142 38.9722 8.59722C39.5761 9.20105 40.0225 9.83447 40.25 10.6632C40.671 12.1969 39.9987 13.5746 39.6597 15.066C39.5358 15.611 39.4082 16.1452 39.375 16.7014C39.349 17.1366 39.101 17.5297 39.0278 17.9583C38.98 18.238 39 18.53 39 18.8125C39 18.9755 38.982 19.1502 39 19.3125C39.0158 19.4546 39.1247 18.9511 39.125 18.9306C39.1417 17.8385 39.125 16.745 39.125 15.6528C39.125 14.2894 39.125 12.9259 39.125 11.5625C39.125 11.0143 39.4157 10.6271 39.4375 10.0903C39.4594 9.55091 39.6734 9.04922 39.6875 8.5C39.7363 6.59767 42.7766 7.45038 43.7188 7.85417C44.6274 8.2436 45.125 9.05886 45.125 10.0347C45.125 10.5328 44.9826 10.8299 44.7153 11.25C44.5092 11.5738 44.5313 11.6748 44.1736 11.7986C43.9356 11.881 43.7543 12.0319 43.4931 12.0972C43.1718 12.1775 42.8921 12.1875 42.5625 12.1875C41.9639 12.1875 41.1361 12.2671 40.7188 11.7535C40.6293 11.6434 40.497 11.6706 40.4097 11.5833C40.3106 11.4842 40.2202 11.2827 40.1597 11.1563C40.0337 10.8927 39.9342 10.5943 39.8507 10.316C39.7346 9.92916 39.618 9.19713 39.7847 8.81597C40.0584 8.19035 40.6115 7.3125 41.375 7.3125C41.7587 7.3125 42.1469 7.33008 42.5278 7.28125C42.8769 7.23649 44.1095 6.77921 44.4028 7.15625C44.8618 7.74639 46.0543 7.5 46.7639 7.5C47.5093 7.5 48.2546 7.5 49 7.5C49.2174 7.5 49.7291 7.2574 49.3194 7.46528C48.8764 7.69009 48.4241 7.98999 48.0486 8.3125C47.7978 8.52797 47.3183 8.67701 47.1562 8.96875C47.0612 9.13987 47.0453 9.42972 47.0069 9.62153C46.9378 9.9673 46.9133 10.3108 47.0035 10.6563C47.1626 11.2663 47.7776 11.5168 48.184 11.9063C48.8819 12.575 50.3195 12.3942 51.2014 12.375C52.5098 12.3466 53.1844 10.7527 53.4375 9.67361C53.6349 8.83226 53.3613 8.11079 52.5799 7.74306C51.8266 7.3886 51.248 7.375 50.434 7.375C49.872 7.375 49.4622 7.19734 49.3438 7.83681C49.3157 7.98804 49.2307 8.37536 49.4132 8.46181C49.6717 8.58425 49.9458 8.66365 50.2326 8.69097C50.7177 8.73717 51.1949 8.88918 51.6736 8.97222C52.1424 9.05355 52.663 9 53.1389 9C54.5618 9 56.2977 8.90103 57.4514 7.96528C58.1613 7.38945 59.0957 7.04518 59.7083 6.34722C60.0712 5.93386 60.1435 5.10054 59.8125 4.65278C59.5082 4.24112 59.0892 4.01323 58.5903 3.9375C57.7937 3.81658 56.5117 3.72694 55.8889 4.36111C55.0691 5.19579 54.6801 6.2253 54.7569 7.37847C54.7885 7.85183 54.9375 8.26209 54.9375 8.73958C54.9375 9.55082 55.3436 10.2597 55.5312 11.0313C55.6197 11.3951 55.901 11.9268 56.191 12.1806C56.6588 12.5899 57.5712 12.6234 58.1562 12.7465C59.0024 12.9247 59.8368 13.0906 60.7049 13.059C61.3661 13.035 61.989 12.5234 62.3646 12.0069C63.022 11.103 62.8773 9.94024 61.7222 9.65972C61.2197 9.53768 60.6419 9.49754 60.125 9.57639C59.5049 9.67098 59.177 9.983 58.6528 10.2708C58.2906 10.4697 58.4099 11.3335 58.441 11.7222C58.4633 12.0009 58.6348 12.2623 58.8785 12.3993C59.0057 12.4709 59.157 12.4128 59.2917 12.4479C59.5662 12.5195 59.8037 12.6195 60.0903 12.6563C60.6901 12.7332 61.2285 12.5817 61.8125 12.4861C62.0897 12.4408 62.3082 12.3919 62.5139 12.2014C62.7924 11.9435 62.8987 11.8585 63.0417 11.4792C63.2369 10.961 63.128 10.4396 63.2639 9.90972C63.3961 9.39413 63.8676 9.0744 64.0139 8.5625C64.0637 8.38801 64.2186 8.2258 64.375 8.13889C64.5878 8.02067 64.5734 7.99259 64.5625 8.32639C64.5474 8.78656 64.3247 9.24773 64.2569 9.70486C64.2207 9.94958 64.2655 10.205 64.2465 10.4514C64.2097 10.9301 64.125 11.4201 64.125 11.8993C64.125 12.1553 64.0826 12.4507 64.2812 12.6493C64.5983 12.9664 64.9601 12.374 65.1944 12.2222C65.5899 11.966 66.0403 11.8574 66.4722 11.6875C66.7067 11.5953 66.7494 11.3217 66.8264 11.1111C67.0457 10.5113 67.399 9.94786 67.4861 9.30556C67.523 9.0335 67.5 8.74629 67.5 8.47222C67.5 8.06942 67.6208 6.88428 67.4861 7.26389C67.1024 8.3454 66.9272 9.90492 67.1944 11.0313C67.2873 11.4225 67.4805 11.9864 67.8194 12.25C68.0073 12.3961 68.2396 12.4746 68.4306 12.6215C68.5507 12.7139 68.6851 12.8433 68.8403 12.8715C69.7381 13.0348 70.6316 12.72 70.875 11.7465C71.023 11.1546 71.0135 10.5325 71.1458 9.94792C71.2632 9.4296 71.4798 8.93094 71.6042 8.40972C71.7937 7.61567 71.9947 6.82626 72.1146 6.01736C72.2629 5.01614 72.0769 4.09257 71.9861 3.10417C71.9429 2.6338 71.9431 2.14458 71.8125 1.6875C71.7905 1.61042 71.7351 1.08068 71.6597 1.22917C71.4943 1.55507 71.442 1.96491 71.4375 2.32639C71.429 3.0183 71.4375 3.71082 71.4375 4.40278C71.4375 5.2983 71.3189 6.27941 71.5035 7.15625C71.6455 7.83071 71.7111 8.46322 71.684 9.15278C71.6526 9.95509 71.3415 10.6624 71.2569 11.4444C71.2313 11.6817 71.125 11.9306 71.125 12.1563C71.125 12.3573 71.095 12.6152 71.0486 12.8125C71.0196 12.9357 71 13.031 71 13.1597C71 13.4429 71.1499 12.7586 71.1528 12.75C71.3111 12.2752 71.5058 11.831 71.5486 11.3264C71.5774 10.987 71.5235 10.6351 71.5764 10.2986C71.625 9.98904 71.76 9.67917 71.8403 9.375C71.8766 9.23731 71.9223 9.0512 72.0486 8.96528C72.2751 8.81124 72.7264 8.87184 72.9792 8.875C73.5784 8.88249 74.0158 9.16508 74.5556 9.375C74.8074 9.47293 75.1539 9.47757 75.375 9.63889C75.5015 9.73118 75.5118 9.89613 75.5764 10.0278C75.8518 10.5891 75.8542 11.0902 75.75 11.7153C75.623 12.4775 75.3974 13.1779 75.316 13.9514C75.3078 14.0289 75.3225 14.0749 75.4097 14.059C75.6582 14.0139 75.7061 13.5487 75.75 13.3681C75.8686 12.8804 75.93 12.4425 75.8438 11.9444C75.7908 11.6388 75.674 11.3394 75.6319 11.0347C75.5669 10.563 75.1896 10.3796 75.0069 9.96875C74.9099 9.75031 74.7993 9.63469 74.5972 9.5C73.8916 9.02961 72.7692 8.92728 71.9583 8.85417C71.8074 8.84056 70.8946 8.97803 70.875 8.625C70.867 8.48028 70.875 8.3324 70.875 8.1875C70.875 7.75994 70.9413 7.34646 70.9375 6.91667C70.9333 6.45083 70.75 6.05667 70.75 5.60417C70.75 5.35857 70.732 5.15621 70.6528 4.92361C70.5732 4.68985 70.6595 4.68901 70.8819 4.6875C72.2224 4.67838 76.2432 4.75 74.9028 4.75C73.0228 4.75 71.1043 4.64952 69.2361 4.89583C68.5604 4.98493 67.725 5.08336 67.0903 5.375C66.9147 5.45569 66.7573 5.4375 66.5625 5.4375" stroke="black" stroke-linecap="round" stroke-linejoin="round"/>
</svg>
